<svg width="341" height="68" viewBox="0 0 341 68" fill="none" xmlns="http://www.w3.org/2000/svg">
<path d="M339.31 1H1V67H339.31V1Z" stroke="#222222" stroke-width="2"/>
<g filter="url(#filter0_d)">
<path d="M69.7541 50.792C67.9061 50.792 66.2781 50.4693 64.8701 49.824C63.4621 49.1787 62.3768 48.284 61.6141 47.14C60.8515 45.9667 60.4701 44.6173 60.4701 43.092C60.4701 41.8013 60.7341 40.628 61.2621 39.572C61.8195 38.516 62.5528 37.68 63.4621 37.064C64.4008 36.448 65.4275 36.14 66.5421 36.14C67.5688 36.14 68.4341 36.404 69.1381 36.932C69.8421 37.4307 70.2821 38.1347 70.4581 39.044C68.9328 39.044 67.7155 39.4547 66.8061 40.276C65.8968 41.068 65.4421 42.1533 65.4421 43.532C65.4421 44.7933 65.8235 45.8053 66.5861 46.568C67.3488 47.3307 68.3608 47.712 69.6221 47.712C71.1768 47.712 72.4528 47.1987 73.4501 46.172C74.4768 45.116 74.9901 43.796 74.9901 42.212C74.9901 40.8333 74.6088 39.528 73.8461 38.296C73.0835 37.064 71.9395 35.568 70.4141 33.808C68.8301 31.9893 67.6275 30.4347 66.8061 29.144C66.0141 27.824 65.6181 26.3867 65.6181 24.832C65.6181 23.3067 66.0435 21.9427 66.8941 20.74C67.7448 19.508 68.9181 18.54 70.4141 17.836C71.9101 17.132 73.5968 16.78 75.4741 16.78C77.8501 16.78 79.7421 17.3373 81.1501 18.452C82.5875 19.5667 83.3061 21.0627 83.3061 22.94C83.3061 24.172 82.9981 25.1693 82.3821 25.932C81.7661 26.6947 80.9595 27.076 79.9621 27.076C78.8475 27.076 77.9528 26.6213 77.2781 25.712C77.8355 25.3013 78.2755 24.7587 78.5981 24.084C78.9208 23.4093 79.0821 22.7053 79.0821 21.972C79.0821 21.0333 78.8035 20.2853 78.2461 19.728C77.6888 19.1707 76.9261 18.892 75.9581 18.892C74.7848 18.892 73.8168 19.3173 73.0541 20.168C72.3208 20.9893 71.9541 22.0453 71.9541 23.336C71.9541 24.5093 72.2915 25.6093 72.9661 26.636C73.6408 27.6333 74.6968 28.924 76.1341 30.508C77.3075 31.7693 78.2461 32.8547 78.9501 33.764C79.6835 34.6733 80.2995 35.7293 80.7981 36.932C81.3261 38.1053 81.5901 39.3813 81.5901 40.76C81.5901 42.6373 81.0621 44.3387 80.0061 45.864C78.9795 47.3893 77.5568 48.592 75.7381 49.472C73.9488 50.352 71.9541 50.792 69.7541 50.792ZM103.252 50.748C100.964 50.748 99.8199 49.7653 99.8199 47.8C99.8199 47.1547 99.9079 46.4213 100.084 45.6C100.289 44.7493 100.568 43.664 100.92 42.344C101.331 40.9653 101.639 39.792 101.844 38.824C102.049 37.856 102.152 36.9907 102.152 36.228C102.152 34.2333 101.272 33.236 99.5119 33.236C99.0132 33.236 98.5292 33.2947 98.0599 33.412L94.5399 50H88.2039L94.5839 20.08C92.6185 20.9013 91.0932 22.1333 90.0079 23.776C88.9519 25.4187 88.4239 27.3987 88.4239 29.716C88.4239 30.8013 88.5265 31.564 88.7319 32.004C88.9372 32.4147 89.0399 32.6493 89.0399 32.708C87.4559 32.708 86.2679 32.3853 85.4759 31.74C84.7132 31.0653 84.3319 29.9653 84.3319 28.44C84.3319 26.5627 85.0945 24.744 86.6199 22.984C88.1745 21.1947 90.1545 19.7573 92.5599 18.672C94.9652 17.5573 97.3705 17 99.7759 17C100.187 17 100.773 17.0293 101.536 17.088L98.6759 30.552L103.208 24.48C106.816 19.6107 108.635 17.1907 108.664 17.22H113.284L101.052 31.3L102.592 31.256C104.587 31.256 105.995 31.6813 106.816 32.532C107.637 33.3533 108.048 34.4973 108.048 35.964C108.048 36.8147 107.945 37.724 107.74 38.692C107.535 39.6307 107.241 40.804 106.86 42.212C106.625 43.1213 106.405 44.016 106.2 44.896C105.995 45.776 105.892 46.5093 105.892 47.096C105.892 47.7707 106.039 48.372 106.332 48.9C106.655 49.428 107.08 49.7947 107.608 50C105.819 50.4987 104.367 50.748 103.252 50.748ZM123.65 20.872H123.122C120.511 20.872 118.472 21.532 117.006 22.852C115.568 24.1427 114.85 26.4453 114.85 29.76C114.85 30.8453 114.952 31.608 115.158 32.048C115.363 32.4587 115.466 32.6933 115.466 32.752C113.882 32.752 112.694 32.4293 111.902 31.784C111.139 31.1093 110.758 30.0093 110.758 28.484C110.758 26.4013 111.271 24.5093 112.298 22.808C113.324 21.0773 114.952 19.684 117.182 18.628C119.44 17.572 122.3 17.044 125.762 17.044C127.698 17.044 129.78 17.22 132.01 17.572C133.887 17.8947 135.559 18.056 137.026 18.056C138.903 18.056 140.604 17.748 142.13 17.132C142.071 19.0387 141.587 20.4467 140.678 21.356C139.768 22.2653 138.419 22.72 136.63 22.72C135.691 22.72 134.752 22.6467 133.814 22.5C132.875 22.3533 131.54 22.104 129.81 21.752L123.738 50H117.402L123.65 20.872ZM150.861 50.748C148.573 50.748 147.429 49.7653 147.429 47.8C147.429 47.1547 147.517 46.4213 147.693 45.6C147.899 44.7493 148.177 43.664 148.529 42.344C148.94 40.9653 149.248 39.792 149.453 38.824C149.659 37.856 149.761 36.9907 149.761 36.228C149.761 34.2333 148.881 33.236 147.121 33.236C146.652 33.236 146.168 33.2947 145.669 33.412L142.149 50H135.813L141.797 22.016L148.309 21.136L146.153 31.3H146.505C147.649 31.3 148.705 30.904 149.673 30.112C150.641 29.32 151.389 28.3373 151.917 27.164C152.475 25.9613 152.753 24.788 152.753 23.644C152.753 22.2947 152.343 21.1947 151.521 20.344C150.729 19.464 149.527 19.024 147.913 19.024C145.537 19.024 143.455 19.4493 141.665 20.3C139.876 21.1507 138.483 22.3827 137.485 23.996C136.517 25.6093 136.033 27.516 136.033 29.716C136.033 30.8013 136.136 31.564 136.341 32.004C136.547 32.4147 136.649 32.6493 136.649 32.708C135.065 32.708 133.877 32.3853 133.085 31.74C132.323 31.0653 131.941 29.9653 131.941 28.44C131.941 26.5627 132.704 24.744 134.229 22.984C135.784 21.1947 137.764 19.7573 140.169 18.672C142.575 17.5573 144.98 17 147.385 17C149.585 17 151.433 17.3227 152.929 17.968C154.425 18.6133 155.54 19.4787 156.273 20.564C157.007 21.62 157.373 22.7787 157.373 24.04C157.373 25.4187 156.948 26.7973 156.097 28.176C155.247 29.5547 154.088 30.684 152.621 31.564C153.736 31.8867 154.513 32.4293 154.953 33.192C155.423 33.9253 155.657 34.8493 155.657 35.964C155.657 36.8147 155.555 37.724 155.349 38.692C155.144 39.6307 154.851 40.804 154.469 42.212C154.235 43.1213 154.015 44.016 153.809 44.896C153.604 45.776 153.501 46.5093 153.501 47.096C153.501 47.7707 153.648 48.372 153.941 48.9C154.264 49.428 154.689 49.7947 155.217 50C153.428 50.4987 151.976 50.748 150.861 50.748Z" fill="#222222"/>
</g>
<g filter="url(#filter1_d)">
<path d="M189.158 50.748C186.87 50.748 185.726 49.7653 185.726 47.8C185.726 47.1547 185.814 46.4213 185.99 45.6C186.195 44.7493 186.474 43.664 186.826 42.344C187.237 40.9653 187.545 39.792 187.75 38.824C187.955 37.856 188.058 36.9907 188.058 36.228C188.058 34.2333 187.178 33.236 185.418 33.236C184.949 33.236 184.465 33.2947 183.966 33.412L180.446 50H174.11L180.094 22.016L186.606 21.136L184.45 31.3H184.802C185.946 31.3 187.002 30.904 187.97 30.112C188.938 29.32 189.686 28.3373 190.214 27.164C190.771 25.9613 191.05 24.788 191.05 23.644C191.05 22.2947 190.639 21.1947 189.818 20.344C189.026 19.464 187.823 19.024 186.21 19.024C183.834 19.024 181.751 19.4493 179.962 20.3C178.173 21.1507 176.779 22.3827 175.782 23.996C174.814 25.6093 174.33 27.516 174.33 29.716C174.33 30.8013 174.433 31.564 174.638 32.004C174.843 32.4147 174.946 32.6493 174.946 32.708C173.362 32.708 172.174 32.3853 171.382 31.74C170.619 31.0653 170.238 29.9653 170.238 28.44C170.238 26.5627 171.001 24.744 172.526 22.984C174.081 21.1947 176.061 19.7573 178.466 18.672C180.871 17.5573 183.277 17 185.682 17C187.882 17 189.73 17.3227 191.226 17.968C192.722 18.6133 193.837 19.4787 194.57 20.564C195.303 21.62 195.67 22.7787 195.67 24.04C195.67 25.4187 195.245 26.7973 194.394 28.176C193.543 29.5547 192.385 30.684 190.918 31.564C192.033 31.8867 192.81 32.4293 193.25 33.192C193.719 33.9253 193.954 34.8493 193.954 35.964C193.954 36.8147 193.851 37.724 193.646 38.692C193.441 39.6307 193.147 40.804 192.766 42.212C192.531 43.1213 192.311 44.016 192.106 44.896C191.901 45.776 191.798 46.5093 191.798 47.096C191.798 47.7707 191.945 48.372 192.238 48.9C192.561 49.428 192.986 49.7947 193.514 50C191.725 50.4987 190.273 50.748 189.158 50.748ZM202.692 50.264C200.521 50.264 198.835 49.7067 197.632 48.592C196.429 47.448 195.828 45.6733 195.828 43.268C195.828 41.244 196.224 39.0147 197.016 36.58C197.808 34.1453 199.099 32.048 200.888 30.288C202.677 28.4987 204.951 27.604 207.708 27.604C210.935 27.604 212.548 29.012 212.548 31.828C212.548 33.4707 212.079 34.9813 211.14 36.36C210.201 37.7387 208.955 38.8533 207.4 39.704C205.845 40.5253 204.188 40.9947 202.428 41.112C202.369 41.992 202.34 42.5787 202.34 42.872C202.34 44.3093 202.589 45.292 203.088 45.82C203.587 46.3187 204.393 46.568 205.508 46.568C207.092 46.568 208.441 46.2013 209.556 45.468C210.7 44.7347 211.947 43.62 213.296 42.124H214.792C211.536 47.5507 207.503 50.264 202.692 50.264ZM202.78 39C203.865 38.9413 204.892 38.56 205.86 37.856C206.857 37.152 207.649 36.2573 208.236 35.172C208.852 34.0867 209.16 32.9427 209.16 31.74C209.16 30.5373 208.793 29.936 208.06 29.936C207.004 29.936 205.963 30.86 204.936 32.708C203.939 34.556 203.22 36.6533 202.78 39ZM218.303 50.264C216.895 50.264 215.707 50 214.739 49.472C213.771 48.9147 213.052 48.2107 212.583 47.36C212.113 46.48 211.879 45.5707 211.879 44.632C211.879 43.664 212.113 42.828 212.583 42.124C213.023 41.3907 213.565 40.8627 214.211 40.54C215.355 38.4867 216.352 36.4187 217.203 34.336C218.053 32.224 218.86 29.9507 219.623 27.516L226.135 26.636C226.281 30.3907 226.531 34.4533 226.883 38.824C227.029 40.584 227.103 41.86 227.103 42.652C227.103 43.3267 227.044 43.884 226.927 44.324C228.305 43.532 229.361 42.7987 230.095 42.124H231.943C230.065 44.2947 227.821 46.128 225.211 47.624C224.36 48.5333 223.304 49.208 222.043 49.648C220.811 50.0587 219.564 50.264 218.303 50.264ZM216.895 46.788C217.98 46.788 218.889 46.4653 219.623 45.82C220.356 45.1747 220.723 44.1333 220.723 42.696C220.723 41.816 220.635 40.584 220.459 39C220.165 35.656 219.975 33.412 219.887 32.268C219.183 34.5853 217.995 37.3573 216.323 40.584C216.997 40.936 217.335 41.4493 217.335 42.124C217.335 42.6813 217.144 43.18 216.763 43.62C216.411 44.06 215.956 44.28 215.399 44.28C214.783 44.28 214.387 44.0893 214.211 43.708C214.211 44.764 214.416 45.5413 214.827 46.04C215.267 46.5387 215.956 46.788 216.895 46.788ZM236.511 50.176C234.341 50.176 232.625 49.6187 231.363 48.504C230.102 47.3893 229.471 45.6293 229.471 43.224C229.471 41.2293 229.882 39.0147 230.703 36.58C231.525 34.1453 232.845 32.048 234.663 30.288C236.482 28.4987 238.77 27.604 241.527 27.604C245.282 27.604 247.159 29.9507 247.159 34.644V34.688C247.247 34.7173 247.409 34.732 247.643 34.732C248.611 34.732 249.726 34.4827 250.987 33.984C252.249 33.456 253.393 32.8253 254.419 32.092L254.815 33.28C253.965 34.1893 252.85 34.9667 251.471 35.612C250.122 36.228 248.641 36.668 247.027 36.932C246.793 39.6013 246.191 41.9333 245.223 43.928C244.255 45.9227 243.009 47.4627 241.483 48.548C239.958 49.6333 238.301 50.176 236.511 50.176ZM238.271 46.216C238.975 46.216 239.679 45.82 240.383 45.028C241.087 44.2067 241.703 43.1067 242.231 41.728C242.759 40.32 243.141 38.7653 243.375 37.064C242.583 36.888 242.187 36.272 242.187 35.216C242.187 34.0133 242.642 33.2213 243.551 32.84C243.493 31.872 243.346 31.212 243.111 30.86C242.877 30.4787 242.466 30.288 241.879 30.288C240.911 30.288 239.973 30.992 239.063 32.4C238.154 33.808 237.421 35.4947 236.863 37.46C236.306 39.4253 236.027 41.156 236.027 42.652C236.027 44.06 236.189 45.0133 236.511 45.512C236.834 45.9813 237.421 46.216 238.271 46.216ZM252.415 28H258.751L258.179 30.728C259.177 29.848 260.071 29.1733 260.863 28.704C261.685 28.2347 262.565 28 263.503 28C264.442 28 265.175 28.3227 265.703 28.968C266.261 29.6133 266.539 30.3907 266.539 31.3C266.539 32.1507 266.261 32.8987 265.703 33.544C265.146 34.1893 264.369 34.512 263.371 34.512C262.726 34.512 262.286 34.3653 262.051 34.072C261.846 33.7493 261.685 33.2947 261.567 32.708C261.479 32.3267 261.391 32.048 261.303 31.872C261.215 31.696 261.054 31.608 260.819 31.608C260.203 31.608 259.675 31.74 259.235 32.004C258.825 32.2387 258.282 32.664 257.607 33.28L254.087 50H247.751L252.415 28ZM270.102 50.264C268.606 50.264 267.492 49.8093 266.758 48.9C266.054 47.9907 265.702 46.788 265.702 45.292C265.702 44.5293 265.79 43.752 265.966 42.96L268.782 29.76H267.33L267.682 28H269.134L270.454 21.928L276.966 21.048C276.702 22.1627 276.556 22.8227 276.526 23.028C276.321 23.8493 275.969 25.5067 275.47 28H278.11L277.758 29.76H275.118L272.302 42.96C272.156 43.6053 272.082 44.1187 272.082 44.5C272.082 45.556 272.596 46.084 273.622 46.084C274.15 46.084 274.532 46.04 274.766 45.952C274.18 47.6533 273.49 48.7973 272.698 49.384C271.906 49.9707 271.041 50.264 270.102 50.264Z" fill="#52CEB8"/>
</g>
<defs>
<filter id="filter0_d" x="59.4702" y="16.78" width="102.903" height="41.012" filterUnits="userSpaceOnUse" color-interpolation-filters="sRGB">
<feFlood flood-opacity="0" result="BackgroundImageFix"/>
<feColorMatrix in="SourceAlpha" type="matrix" values="0 0 0 0 0 0 0 0 0 0 0 0 0 0 0 0 0 0 127 0"/>
<feOffset dx="2" dy="4"/>
<feGaussianBlur stdDeviation="1.5"/>
<feColorMatrix type="matrix" values="0 0 0 0 0 0 0 0 0 0 0 0 0 0 0 0 0 0 0.3 0"/>
<feBlend mode="normal" in2="BackgroundImageFix" result="effect1_dropShadow"/>
<feBlend mode="normal" in="SourceGraphic" in2="effect1_dropShadow" result="shape"/>
</filter>
<filter id="filter1_d" x="169.238" y="17" width="113.872" height="39.748" filterUnits="userSpaceOnUse" color-interpolation-filters="sRGB">
<feFlood flood-opacity="0" result="BackgroundImageFix"/>
<feColorMatrix in="SourceAlpha" type="matrix" values="0 0 0 0 0 0 0 0 0 0 0 0 0 0 0 0 0 0 127 0"/>
<feOffset dx="2" dy="3"/>
<feGaussianBlur stdDeviation="1.5"/>
<feColorMatrix type="matrix" values="0 0 0 0 0 0 0 0 0 0 0 0 0 0 0 0 0 0 0.3 0"/>
<feBlend mode="normal" in2="BackgroundImageFix" result="effect1_dropShadow"/>
<feBlend mode="normal" in="SourceGraphic" in2="effect1_dropShadow" result="shape"/>
</filter>
</defs>
</svg>
